<?xml version="1.0" encoding="UTF-8"?>
<svg width="58px" height="46px" viewBox="0 0 58 46" version="1.1" xmlns="http://www.w3.org/2000/svg" xmlns:xlink="http://www.w3.org/1999/xlink">
    <!-- Generator: Sketch 52.1 (67048) - http://www.bohemiancoding.com/sketch -->
    <title>Playstation</title>
    <desc>Created with Sketch.</desc>
    <defs>
        <radialGradient cx="12.6807822%" cy="90.4835474%" fx="12.6807822%" fy="90.4835474%" r="104.111117%" gradientTransform="translate(0.126808,0.904835),scale(0.793103,1.000000),rotate(-41.118027),translate(-0.126808,-0.904835)" id="radialGradient-1">
            <stop stop-color="#00D4FF" offset="0%"></stop>
            <stop stop-color="#00BBE0" offset="100%"></stop>
        </radialGradient>
    </defs>
    <g id="Page-2" stroke="none" stroke-width="1" fill="none" fill-rule="evenodd">
        <g id="分组" transform="translate(-36.000000, 0.000000)" fill="url(#radialGradient-1)" fill-rule="nonzero">
            <g id="Playstation" transform="translate(36.000000, 0.000000)">
                <path d="M22.5555556,0 L22.5555556,42.9184073 L31.53865,46 L31.53865,10.0010731 C31.53865,8.31571686 32.2380596,7.18920791 33.3532024,7.58057723 C34.8221259,8.01954554 35.1090631,9.57444526 35.1090631,11.2598015 L35.1090631,25.6364542 C40.7043409,28.5558578 45.1111111,25.6346912 45.1111111,17.9148431 C45.1111111,10.0010731 42.5335663,6.48932662 34.9264667,3.66688376 C31.9364494,2.57739626 26.3721479,0.763346507 22.5555556,0 Z M33.8333333,40.5541264 L33.8333333,46 L53.734221,38.6152724 C53.734221,38.6152724 56.4092759,37.5988687 57.5037669,36.1759035 C58.5932979,34.7529386 58.1088782,32.6876746 53.8119265,31.2817919 C50.0027012,29.7887889 45.1469309,29.2780248 41.1822945,29.7307087 C37.2160048,30.1833927 34.3954585,31.2134623 34.3954585,31.2134623 L33.8333333,31.4082018 L33.8333333,37.0624809 L43.5895133,33.5127552 C45.2510894,32.8977883 47.6963343,32.7645455 49.0470882,33.2223541 C50.3945355,33.6784546 50.1366194,34.5462413 48.4800031,35.1594999 L33.8333333,40.5541264 Z M4.59768918,37.8192624 C9.77096502,39.4812782 15.0238575,39.8069911 19.9600926,39.0217591 C20.2803688,38.9689407 20.6295966,38.9161224 20.9444444,38.8597829 L20.9444444,33.8209171 L16.0118283,35.5586392 C14.1933105,36.1959801 11.5189134,36.3297864 10.0405761,35.8579428 C8.56585778,35.3860995 8.84270676,34.4934701 10.6630339,33.8561293 L20.9444444,30.2732879 L20.9444444,24.6428571 L6.65324753,29.5831288 C6.65324753,29.5831288 3.1989686,30.6905525 1.15969553,32.1571406 C-1.03700146,33.7434503 -0.231787143,36.4970443 4.59768918,37.8192624 Z" id="Combined-Shape"></path>
            </g>
        </g>
    </g>
</svg>